<svg width="276" height="269" viewBox="0 0 276 269" fill="none" xmlns="http://www.w3.org/2000/svg">
<path d="M79.9604 89.7451L78.8157 86L77.671 89.7451L75 92.609L78.8157 91.7278L82.6315 92.609L79.9604 89.7451Z" fill="#FF7E7E"/>
<path d="M97.5845 89.7451L96.4398 86L95.2951 89.7451L92.6241 92.609L96.4398 91.7278L100.256 92.609L97.5845 89.7451Z" fill="#FF7E7E"/>
<path d="M114.064 86L115.209 89.7451L117.88 92.609L114.064 91.7278L110.248 92.609L112.919 89.7451L114.064 86Z" fill="#FF7E7E"/>
<path d="M132.833 89.7451L131.688 86L130.543 89.7451L127.872 92.609L131.688 91.7278L135.504 92.609L132.833 89.7451Z" fill="#FF7E7E"/>
<path d="M149.312 86L150.457 89.7451L153.128 92.609L149.312 91.7278L145.496 92.609L148.167 89.7451L149.312 86Z" fill="#FF7E7E"/>
<path d="M168.081 89.7451L166.936 86L165.791 89.7451L163.12 92.609L166.936 91.7278L170.752 92.609L168.081 89.7451Z" fill="#FF7E7E"/>
<path d="M184.56 86L185.705 89.7451L188.376 92.609L184.56 91.7278L180.744 92.609L183.415 89.7451L184.56 86Z" fill="#FF7E7E"/>
<path d="M203.329 89.7451L202.184 86L201.04 89.7451L198.369 92.609L202.184 91.7278L206 92.609L203.329 89.7451Z" fill="#FF7E7E"/>
<path d="M78.8157 99.2181L79.9604 102.963L82.6315 105.827L78.8157 104.946L75 105.827L77.671 102.963L78.8157 99.2181Z" fill="#FF7E7E"/>
<path d="M97.5845 102.963L96.4398 99.2181L95.2951 102.963L92.6241 105.827L96.4398 104.946L100.256 105.827L97.5845 102.963Z" fill="#FF7E7E"/>
<path d="M114.064 99.2181L115.209 102.963L117.88 105.827L114.064 104.946L110.248 105.827L112.919 102.963L114.064 99.2181Z" fill="#FF7E7E"/>
<path d="M132.833 102.963L131.688 99.2181L130.543 102.963L127.872 105.827L131.688 104.946L135.504 105.827L132.833 102.963Z" fill="#FF7E7E"/>
<path d="M149.312 99.2181L150.457 102.963L153.128 105.827L149.312 104.946L145.496 105.827L148.167 102.963L149.312 99.2181Z" fill="#FF7E7E"/>
<path d="M168.081 102.963L166.936 99.2181L165.791 102.963L163.12 105.827L166.936 104.946L170.752 105.827L168.081 102.963Z" fill="#FF7E7E"/>
<path d="M184.56 99.2181L185.705 102.963L188.376 105.827L184.56 104.946L180.744 105.827L183.415 102.963L184.56 99.2181Z" fill="#FF7E7E"/>
<path d="M203.329 102.963L202.184 99.2181L201.04 102.963L198.369 105.827L202.184 104.946L206 105.827L203.329 102.963Z" fill="#FF7E7E"/>
<path d="M78.8157 112.436L79.9604 116.181L82.6315 119.045L78.8157 118.164L75 119.045L77.671 116.181L78.8157 112.436Z" fill="#FF7E7E"/>
<path d="M97.5845 116.181L96.4398 112.436L95.2951 116.181L92.6241 119.045L96.4398 118.164L100.256 119.045L97.5845 116.181Z" fill="#FF7E7E"/>
<path d="M114.064 112.436L115.209 116.181L117.88 119.045L114.064 118.164L110.248 119.045L112.919 116.181L114.064 112.436Z" fill="#FF7E7E"/>
<path d="M132.833 116.181L131.688 112.436L130.543 116.181L127.872 119.045L131.688 118.164L135.504 119.045L132.833 116.181Z" fill="#FF7E7E"/>
<path d="M149.312 112.436L150.457 116.181L153.128 119.045L149.312 118.164L145.496 119.045L148.167 116.181L149.312 112.436Z" fill="#FF7E7E"/>
<path d="M168.081 116.181L166.936 112.436L165.791 116.181L163.12 119.045L166.936 118.164L170.752 119.045L168.081 116.181Z" fill="#FF7E7E"/>
<path d="M184.56 112.436L185.705 116.181L188.376 119.045L184.56 118.164L180.744 119.045L183.415 116.181L184.56 112.436Z" fill="#FF7E7E"/>
<path d="M203.329 116.181L202.184 112.436L201.04 116.181L198.369 119.045L202.184 118.164L206 119.045L203.329 116.181Z" fill="#FF7E7E"/>
<path d="M78.8157 125.654L79.9604 129.399L82.6315 132.263L78.8157 131.382L75 132.263L77.671 129.399L78.8157 125.654Z" fill="#FF7E7E"/>
<path d="M97.5845 129.399L96.4398 125.654L95.2951 129.399L92.6241 132.263L96.4398 131.382L100.256 132.263L97.5845 129.399Z" fill="#FF7E7E"/>
<path d="M114.064 125.654L115.209 129.399L117.88 132.263L114.064 131.382L110.248 132.263L112.919 129.399L114.064 125.654Z" fill="#FF7E7E"/>
<path d="M132.833 129.399L131.688 125.654L130.543 129.399L127.872 132.263L131.688 131.382L135.504 132.263L132.833 129.399Z" fill="#FF7E7E"/>
<path d="M149.312 125.654L150.457 129.399L153.128 132.263L149.312 131.382L145.496 132.263L148.167 129.399L149.312 125.654Z" fill="#FF7E7E"/>
<path d="M168.081 129.399L166.936 125.654L165.791 129.399L163.12 132.263L166.936 131.382L170.752 132.263L168.081 129.399Z" fill="#FF7E7E"/>
<path d="M184.56 125.654L185.705 129.399L188.376 132.263L184.56 131.382L180.744 132.263L183.415 129.399L184.56 125.654Z" fill="#FF7E7E"/>
<path d="M203.329 129.399L202.184 125.654L201.04 129.399L198.369 132.263L202.184 131.382L206 132.263L203.329 129.399Z" fill="#FF7E7E"/>
<path d="M78.8157 138.872L79.9604 142.617L82.6315 145.481L78.8157 144.6L75 145.481L77.671 142.617L78.8157 138.872Z" fill="#FF7E7E"/>
<path d="M97.5845 142.617L96.4398 138.872L95.2951 142.617L92.6241 145.481L96.4398 144.6L100.256 145.481L97.5845 142.617Z" fill="#FF7E7E"/>
<path d="M114.064 138.872L115.209 142.617L117.88 145.481L114.064 144.6L110.248 145.481L112.919 142.617L114.064 138.872Z" fill="#FF7E7E"/>
<path d="M132.833 142.617L131.688 138.872L130.543 142.617L127.872 145.481L131.688 144.6L135.504 145.481L132.833 142.617Z" fill="#FF7E7E"/>
<path d="M149.312 138.872L150.457 142.617L153.128 145.481L149.312 144.6L145.496 145.481L148.167 142.617L149.312 138.872Z" fill="#FF7E7E"/>
<path d="M168.081 142.617L166.936 138.872L165.791 142.617L163.12 145.481L166.936 144.6L170.752 145.481L168.081 142.617Z" fill="#FF7E7E"/>
<path d="M184.56 138.872L185.705 142.617L188.376 145.481L184.56 144.6L180.744 145.481L183.415 142.617L184.56 138.872Z" fill="#FF7E7E"/>
<path d="M203.329 142.617L202.184 138.872L201.04 142.617L198.369 145.481L202.184 144.6L206 145.481L203.329 142.617Z" fill="#FF7E7E"/>
<path d="M78.8157 152.09L79.9604 155.835L82.6315 158.699L78.8157 157.818L75 158.699L77.671 155.835L78.8157 152.09Z" fill="#FF7E7E"/>
<path d="M97.5845 155.835L96.4398 152.09L95.2951 155.835L92.6241 158.699L96.4398 157.818L100.256 158.699L97.5845 155.835Z" fill="#FF7E7E"/>
<path d="M114.064 152.09L115.209 155.835L117.88 158.699L114.064 157.818L110.248 158.699L112.919 155.835L114.064 152.09Z" fill="#FF7E7E"/>
<path d="M132.833 155.835L131.688 152.09L130.543 155.835L127.872 158.699L131.688 157.818L135.504 158.699L132.833 155.835Z" fill="#FF7E7E"/>
<path d="M149.312 152.09L150.457 155.835L153.128 158.699L149.312 157.818L145.496 158.699L148.167 155.835L149.312 152.09Z" fill="#FF7E7E"/>
<path d="M168.081 155.835L166.936 152.09L165.791 155.835L163.12 158.699L166.936 157.818L170.752 158.699L168.081 155.835Z" fill="#FF7E7E"/>
<path d="M184.56 152.09L185.705 155.835L188.376 158.699L184.56 157.818L180.744 158.699L183.415 155.835L184.56 152.09Z" fill="#FF7E7E"/>
<path d="M203.329 155.835L202.184 152.09L201.04 155.835L198.369 158.699L202.184 157.818L206 158.699L203.329 155.835Z" fill="#FF7E7E"/>
<path d="M78.8157 165.308L79.9604 169.053L82.6315 171.917L78.8157 171.036L75 171.917L77.671 169.053L78.8157 165.308Z" fill="#FF7E7E"/>
<path d="M97.5845 169.053L96.4398 165.308L95.2951 169.053L92.6241 171.917L96.4398 171.036L100.256 171.917L97.5845 169.053Z" fill="#FF7E7E"/>
<path d="M114.064 165.308L115.209 169.053L117.88 171.917L114.064 171.036L110.248 171.917L112.919 169.053L114.064 165.308Z" fill="#FF7E7E"/>
<path d="M132.833 169.053L131.688 165.308L130.543 169.053L127.872 171.917L131.688 171.036L135.504 171.917L132.833 169.053Z" fill="#FF7E7E"/>
<path d="M149.312 165.308L150.457 169.053L153.128 171.917L149.312 171.036L145.496 171.917L148.167 169.053L149.312 165.308Z" fill="#FF7E7E"/>
<path d="M168.081 169.053L166.936 165.308L165.791 169.053L163.12 171.917L166.936 171.036L170.752 171.917L168.081 169.053Z" fill="#FF7E7E"/>
<path d="M184.56 165.308L185.705 169.053L188.376 171.917L184.56 171.036L180.744 171.917L183.415 169.053L184.56 165.308Z" fill="#FF7E7E"/>
<path d="M203.329 169.053L202.184 165.308L201.04 169.053L198.369 171.917L202.184 171.036L206 171.917L203.329 169.053Z" fill="#FF7E7E"/>
<path d="M78.8157 178.526L79.9604 182.272L82.6315 185.135L78.8157 184.254L75 185.135L77.671 182.272L78.8157 178.526Z" fill="#FF7E7E"/>
<path d="M97.5845 182.272L96.4398 178.526L95.2951 182.272L92.6241 185.135L96.4398 184.254L100.256 185.135L97.5845 182.272Z" fill="#FF7E7E"/>
<path d="M114.064 178.526L115.209 182.272L117.88 185.135L114.064 184.254L110.248 185.135L112.919 182.272L114.064 178.526Z" fill="#FF7E7E"/>
<path d="M132.833 182.272L131.688 178.526L130.543 182.272L127.872 185.135L131.688 184.254L135.504 185.135L132.833 182.272Z" fill="#FF7E7E"/>
<path d="M149.312 178.526L150.457 182.272L153.128 185.135L149.312 184.254L145.496 185.135L148.167 182.272L149.312 178.526Z" fill="#FF7E7E"/>
<path d="M168.081 182.272L166.936 178.526L165.791 182.272L163.12 185.135L166.936 184.254L170.752 185.135L168.081 182.272Z" fill="#FF7E7E"/>
<path d="M184.56 178.526L185.705 182.272L188.376 185.135L184.56 184.254L180.744 185.135L183.415 182.272L184.56 178.526Z" fill="#FF7E7E"/>
<path d="M203.329 182.272L202.184 178.526L201.04 182.272L198.369 185.135L202.184 184.254L206 185.135L203.329 182.272Z" fill="#FF7E7E"/>
<path d="M138 230C190.435 230 237 189.418 237 134.5C237 79.5816 190.435 39 138 39C85.5653 39 39 79.5816 39 134.5C39 189.418 85.5653 230 138 230Z" stroke="#F9F9FF" stroke-width="78"/>
</svg>
