<svg width="79" height="83" viewBox="0 0 79 83" fill="none" xmlns="http://www.w3.org/2000/svg">
<path fill-rule="evenodd" clip-rule="evenodd" d="M1.59615 3.19231C2.47769 3.19231 3.19231 2.47769 3.19231 1.59615C3.19231 0.714622 2.47769 0 1.59615 0C0.714622 0 0 0.714622 0 1.59615C0 2.47769 0.714622 3.19231 1.59615 3.19231ZM1.59615 19.1538C2.47769 19.1538 3.19231 18.4392 3.19231 17.5577C3.19231 16.6762 2.47769 15.9615 1.59615 15.9615C0.714622 15.9615 0 16.6762 0 17.5577C0 18.4392 0.714622 19.1538 1.59615 19.1538ZM3.19231 33.5192C3.19231 34.4008 2.47769 35.1154 1.59615 35.1154C0.714622 35.1154 0 34.4008 0 33.5192C0 32.6377 0.714622 31.9231 1.59615 31.9231C2.47769 31.9231 3.19231 32.6377 3.19231 33.5192ZM1.59615 51.0769C2.47769 51.0769 3.19231 50.3623 3.19231 49.4808C3.19231 48.5992 2.47769 47.8846 1.59615 47.8846C0.714622 47.8846 0 48.5992 0 49.4808C0 50.3623 0.714622 51.0769 1.59615 51.0769ZM3.19231 65.4423C3.19231 66.3238 2.47769 67.0385 1.59615 67.0385C0.714622 67.0385 0 66.3238 0 65.4423C0 64.5608 0.714622 63.8462 1.59615 63.8462C2.47769 63.8462 3.19231 64.5608 3.19231 65.4423ZM1.59615 83C2.47769 83 3.19231 82.2854 3.19231 81.4038C3.19231 80.5223 2.47769 79.8077 1.59615 79.8077C0.714622 79.8077 0 80.5223 0 81.4038C0 82.2854 0.714622 83 1.59615 83ZM19.1538 1.59615C19.1538 2.47769 18.4392 3.19231 17.5577 3.19231C16.6762 3.19231 15.9615 2.47769 15.9615 1.59615C15.9615 0.714622 16.6762 0 17.5577 0C18.4392 0 19.1538 0.714622 19.1538 1.59615ZM17.5577 19.1538C18.4392 19.1538 19.1538 18.4392 19.1538 17.5577C19.1538 16.6762 18.4392 15.9615 17.5577 15.9615C16.6762 15.9615 15.9615 16.6762 15.9615 17.5577C15.9615 18.4392 16.6762 19.1538 17.5577 19.1538ZM19.1538 33.5192C19.1538 34.4008 18.4392 35.1154 17.5577 35.1154C16.6762 35.1154 15.9615 34.4008 15.9615 33.5192C15.9615 32.6377 16.6762 31.9231 17.5577 31.9231C18.4392 31.9231 19.1538 32.6377 19.1538 33.5192ZM17.5577 51.0769C18.4392 51.0769 19.1538 50.3623 19.1538 49.4808C19.1538 48.5992 18.4392 47.8846 17.5577 47.8846C16.6762 47.8846 15.9615 48.5992 15.9615 49.4808C15.9615 50.3623 16.6762 51.0769 17.5577 51.0769ZM19.1538 65.4423C19.1538 66.3238 18.4392 67.0385 17.5577 67.0385C16.6762 67.0385 15.9615 66.3238 15.9615 65.4423C15.9615 64.5608 16.6762 63.8462 17.5577 63.8462C18.4392 63.8462 19.1538 64.5608 19.1538 65.4423ZM17.5577 83C18.4392 83 19.1538 82.2854 19.1538 81.4038C19.1538 80.5223 18.4392 79.8077 17.5577 79.8077C16.6762 79.8077 15.9615 80.5223 15.9615 81.4038C15.9615 82.2854 16.6762 83 17.5577 83Z" fill="#FF7474"/>
<path fill-rule="evenodd" clip-rule="evenodd" d="M30.5962 3.19231C31.4777 3.19231 32.1923 2.47769 32.1923 1.59615C32.1923 0.714622 31.4777 0 30.5962 0C29.7146 0 29 0.714622 29 1.59615C29 2.47769 29.7146 3.19231 30.5962 3.19231ZM30.5962 19.1538C31.4777 19.1538 32.1923 18.4392 32.1923 17.5577C32.1923 16.6762 31.4777 15.9615 30.5962 15.9615C29.7146 15.9615 29 16.6762 29 17.5577C29 18.4392 29.7146 19.1538 30.5962 19.1538ZM32.1923 33.5192C32.1923 34.4008 31.4777 35.1154 30.5962 35.1154C29.7146 35.1154 29 34.4008 29 33.5192C29 32.6377 29.7146 31.9231 30.5962 31.9231C31.4777 31.9231 32.1923 32.6377 32.1923 33.5192ZM30.5962 51.0769C31.4777 51.0769 32.1923 50.3623 32.1923 49.4808C32.1923 48.5992 31.4777 47.8846 30.5962 47.8846C29.7146 47.8846 29 48.5992 29 49.4808C29 50.3623 29.7146 51.0769 30.5962 51.0769ZM32.1923 65.4423C32.1923 66.3238 31.4777 67.0385 30.5962 67.0385C29.7146 67.0385 29 66.3238 29 65.4423C29 64.5608 29.7146 63.8462 30.5962 63.8462C31.4777 63.8462 32.1923 64.5608 32.1923 65.4423ZM30.5962 83C31.4777 83 32.1923 82.2854 32.1923 81.4038C32.1923 80.5223 31.4777 79.8077 30.5962 79.8077C29.7146 79.8077 29 80.5223 29 81.4038C29 82.2854 29.7146 83 30.5962 83ZM48.1538 1.59615C48.1538 2.47769 47.4392 3.19231 46.5577 3.19231C45.6762 3.19231 44.9615 2.47769 44.9615 1.59615C44.9615 0.714622 45.6762 0 46.5577 0C47.4392 0 48.1538 0.714622 48.1538 1.59615ZM46.5577 19.1538C47.4392 19.1538 48.1538 18.4392 48.1538 17.5577C48.1538 16.6762 47.4392 15.9615 46.5577 15.9615C45.6762 15.9615 44.9615 16.6762 44.9615 17.5577C44.9615 18.4392 45.6762 19.1538 46.5577 19.1538ZM48.1538 33.5192C48.1538 34.4008 47.4392 35.1154 46.5577 35.1154C45.6762 35.1154 44.9615 34.4008 44.9615 33.5192C44.9615 32.6377 45.6762 31.9231 46.5577 31.9231C47.4392 31.9231 48.1538 32.6377 48.1538 33.5192ZM46.5577 51.0769C47.4392 51.0769 48.1538 50.3623 48.1538 49.4808C48.1538 48.5992 47.4392 47.8846 46.5577 47.8846C45.6762 47.8846 44.9615 48.5992 44.9615 49.4808C44.9615 50.3623 45.6762 51.0769 46.5577 51.0769ZM48.1538 65.4423C48.1538 66.3238 47.4392 67.0385 46.5577 67.0385C45.6762 67.0385 44.9615 66.3238 44.9615 65.4423C44.9615 64.5608 45.6762 63.8462 46.5577 63.8462C47.4392 63.8462 48.1538 64.5608 48.1538 65.4423ZM46.5577 83C47.4392 83 48.1538 82.2854 48.1538 81.4038C48.1538 80.5223 47.4392 79.8077 46.5577 79.8077C45.6762 79.8077 44.9615 80.5223 44.9615 81.4038C44.9615 82.2854 45.6762 83 46.5577 83Z" fill="#FF7474"/>
<path fill-rule="evenodd" clip-rule="evenodd" d="M60.5962 3.19231C61.4777 3.19231 62.1923 2.47769 62.1923 1.59615C62.1923 0.714622 61.4777 0 60.5962 0C59.7146 0 59 0.714622 59 1.59615C59 2.47769 59.7146 3.19231 60.5962 3.19231ZM60.5962 19.1538C61.4777 19.1538 62.1923 18.4392 62.1923 17.5577C62.1923 16.6762 61.4777 15.9615 60.5962 15.9615C59.7146 15.9615 59 16.6762 59 17.5577C59 18.4392 59.7146 19.1538 60.5962 19.1538ZM62.1923 33.5192C62.1923 34.4008 61.4777 35.1154 60.5962 35.1154C59.7146 35.1154 59 34.4008 59 33.5192C59 32.6377 59.7146 31.9231 60.5962 31.9231C61.4777 31.9231 62.1923 32.6377 62.1923 33.5192ZM60.5962 51.0769C61.4777 51.0769 62.1923 50.3623 62.1923 49.4808C62.1923 48.5992 61.4777 47.8846 60.5962 47.8846C59.7146 47.8846 59 48.5992 59 49.4808C59 50.3623 59.7146 51.0769 60.5962 51.0769ZM62.1923 65.4423C62.1923 66.3238 61.4777 67.0385 60.5962 67.0385C59.7146 67.0385 59 66.3238 59 65.4423C59 64.5608 59.7146 63.8462 60.5962 63.8462C61.4777 63.8462 62.1923 64.5608 62.1923 65.4423ZM60.5962 83C61.4777 83 62.1923 82.2854 62.1923 81.4038C62.1923 80.5223 61.4777 79.8077 60.5962 79.8077C59.7146 79.8077 59 80.5223 59 81.4038C59 82.2854 59.7146 83 60.5962 83ZM78.1538 1.59615C78.1538 2.47769 77.4392 3.19231 76.5577 3.19231C75.6762 3.19231 74.9615 2.47769 74.9615 1.59615C74.9615 0.714622 75.6762 0 76.5577 0C77.4392 0 78.1538 0.714622 78.1538 1.59615ZM76.5577 19.1538C77.4392 19.1538 78.1538 18.4392 78.1538 17.5577C78.1538 16.6762 77.4392 15.9615 76.5577 15.9615C75.6762 15.9615 74.9615 16.6762 74.9615 17.5577C74.9615 18.4392 75.6762 19.1538 76.5577 19.1538ZM78.1538 33.5192C78.1538 34.4008 77.4392 35.1154 76.5577 35.1154C75.6762 35.1154 74.9615 34.4008 74.9615 33.5192C74.9615 32.6377 75.6762 31.9231 76.5577 31.9231C77.4392 31.9231 78.1538 32.6377 78.1538 33.5192ZM76.5577 51.0769C77.4392 51.0769 78.1538 50.3623 78.1538 49.4808C78.1538 48.5992 77.4392 47.8846 76.5577 47.8846C75.6762 47.8846 74.9615 48.5992 74.9615 49.4808C74.9615 50.3623 75.6762 51.0769 76.5577 51.0769ZM78.1538 65.4423C78.1538 66.3238 77.4392 67.0385 76.5577 67.0385C75.6762 67.0385 74.9615 66.3238 74.9615 65.4423C74.9615 64.5608 75.6762 63.8462 76.5577 63.8462C77.4392 63.8462 78.1538 64.5608 78.1538 65.4423ZM76.5577 83C77.4392 83 78.1538 82.2854 78.1538 81.4038C78.1538 80.5223 77.4392 79.8077 76.5577 79.8077C75.6762 79.8077 74.9615 80.5223 74.9615 81.4038C74.9615 82.2854 75.6762 83 76.5577 83Z" fill="#FF7474"/>
</svg>
