<svg width="166" height="29" viewBox="0 0 166 29" fill="none" xmlns="http://www.w3.org/2000/svg">
<path d="M22.3321 0.0566263V5.53663H14.8921V28.1366H8.0521V5.53663H0.6121V0.0566263H22.3321ZM32.6049 9.53663C33.4049 8.30996 34.4049 7.34996 35.6049 6.65663C36.8049 5.93663 38.1382 5.57663 39.6049 5.57663V12.8166H37.7249C36.0182 12.8166 34.7382 13.19 33.8849 13.9366C33.0316 14.6566 32.6049 15.9366 32.6049 17.7766V28.1366H25.7649V5.81663H32.6049V9.53663ZM53.0343 28.4566C50.8476 28.4566 48.8743 27.99 47.1143 27.0566C45.381 26.1233 44.0076 24.79 42.9943 23.0566C42.0076 21.3233 41.5143 19.2966 41.5143 16.9766C41.5143 14.6833 42.021 12.67 43.0343 10.9366C44.0476 9.17663 45.4343 7.82996 47.1943 6.89663C48.9543 5.96329 50.9276 5.49663 53.1143 5.49663C55.301 5.49663 57.2743 5.96329 59.0343 6.89663C60.7943 7.82996 62.181 9.17663 63.1943 10.9366C64.2076 12.67 64.7143 14.6833 64.7143 16.9766C64.7143 19.27 64.1943 21.2966 63.1543 23.0566C62.141 24.79 60.741 26.1233 58.9543 27.0566C57.1943 27.99 55.221 28.4566 53.0343 28.4566ZM53.0343 22.5366C54.341 22.5366 55.4476 22.0566 56.3543 21.0966C57.2876 20.1366 57.7543 18.7633 57.7543 16.9766C57.7543 15.19 57.301 13.8166 56.3943 12.8566C55.5143 11.8966 54.421 11.4166 53.1143 11.4166C51.781 11.4166 50.6743 11.8966 49.7943 12.8566C48.9143 13.79 48.4743 15.1633 48.4743 16.9766C48.4743 18.7633 48.901 20.1366 49.7543 21.0966C50.6343 22.0566 51.7276 22.5366 53.0343 22.5366ZM78.503 28.4566C76.3164 28.4566 74.343 27.99 72.583 27.0566C70.8497 26.1233 69.4764 24.79 68.463 23.0566C67.4764 21.3233 66.983 19.2966 66.983 16.9766C66.983 14.6833 67.4897 12.67 68.503 10.9366C69.5164 9.17663 70.903 7.82996 72.663 6.89663C74.423 5.96329 76.3964 5.49663 78.583 5.49663C80.7697 5.49663 82.743 5.96329 84.503 6.89663C86.263 7.82996 87.6497 9.17663 88.663 10.9366C89.6764 12.67 90.183 14.6833 90.183 16.9766C90.183 19.27 89.663 21.2966 88.623 23.0566C87.6097 24.79 86.2097 26.1233 84.423 27.0566C82.663 27.99 80.6897 28.4566 78.503 28.4566ZM78.503 22.5366C79.8097 22.5366 80.9164 22.0566 81.823 21.0966C82.7564 20.1366 83.223 18.7633 83.223 16.9766C83.223 15.19 82.7697 13.8166 81.863 12.8566C80.983 11.8966 79.8897 11.4166 78.583 11.4166C77.2497 11.4166 76.143 11.8966 75.263 12.8566C74.383 13.79 73.943 15.1633 73.943 16.9766C73.943 18.7633 74.3697 20.1366 75.223 21.0966C76.103 22.0566 77.1964 22.5366 78.503 22.5366Z" fill="#00B074"/>
<path d="M103.852 21.7366L108.692 5.81663H115.972L108.052 28.1366H99.6118L91.6918 5.81663H99.0118L103.852 21.7366ZM139.891 16.6166C139.891 17.2566 139.851 17.9233 139.771 18.6166H124.291C124.398 20.0033 124.838 21.07 125.611 21.8166C126.411 22.5366 127.384 22.8966 128.531 22.8966C130.238 22.8966 131.424 22.1766 132.091 20.7366H139.371C138.998 22.2033 138.318 23.5233 137.331 24.6966C136.371 25.87 135.158 26.79 133.691 27.4566C132.224 28.1233 130.584 28.4566 128.771 28.4566C126.584 28.4566 124.638 27.99 122.931 27.0566C121.224 26.1233 119.891 24.79 118.931 23.0566C117.971 21.3233 117.491 19.2966 117.491 16.9766C117.491 14.6566 117.958 12.63 118.891 10.8966C119.851 9.16329 121.184 7.82996 122.891 6.89663C124.598 5.96329 126.558 5.49663 128.771 5.49663C130.931 5.49663 132.851 5.94996 134.531 6.85663C136.211 7.76329 137.518 9.05663 138.451 10.7366C139.411 12.4166 139.891 14.3766 139.891 16.6166ZM132.891 14.8166C132.891 13.6433 132.491 12.71 131.691 12.0166C130.891 11.3233 129.891 10.9766 128.691 10.9766C127.544 10.9766 126.571 11.31 125.771 11.9766C124.998 12.6433 124.518 13.59 124.331 14.8166H132.891ZM157.099 5.57663C159.713 5.57663 161.793 6.42996 163.339 8.13663C164.913 9.81663 165.699 12.1366 165.699 15.0966V28.1366H158.899V16.0166C158.899 14.5233 158.513 13.3633 157.739 12.5366C156.966 11.71 155.926 11.2966 154.619 11.2966C153.313 11.2966 152.273 11.71 151.499 12.5366C150.726 13.3633 150.339 14.5233 150.339 16.0166V28.1366H143.499V5.81663H150.339V8.77663C151.033 7.78996 151.966 7.01663 153.139 6.45662C154.313 5.86996 155.633 5.57663 157.099 5.57663Z" fill="#2B3940"/>
</svg>
